<svg width="20" height="20" viewBox="0 0 20 20" fill="none" xmlns="http://www.w3.org/2000/svg">
<g id="local_taxi">
<mask id="mask0_157_1792" style="mask-type:alpha" maskUnits="userSpaceOnUse" x="0" y="0" width="20" height="20">
<rect id="Bounding box" width="20" height="20" fill="#D9D9D9"/>
</mask>
<g mask="url(#mask0_157_1792)">
<path id="local_taxi_2" d="M5 15.8333V16.6667C5 16.9028 4.92014 17.1007 4.76042 17.2604C4.60069 17.4201 4.40278 17.5 4.16667 17.5H3.33333C3.09722 17.5 2.89931 17.4201 2.73958 17.2604C2.57986 17.1007 2.5 16.9028 2.5 16.6667V10L4.25 5C4.33333 4.75 4.48264 4.54861 4.69792 4.39583C4.91319 4.24306 5.15278 4.16667 5.41667 4.16667H7.5V2.5H12.5V4.16667H14.5833C14.8472 4.16667 15.0868 4.24306 15.3021 4.39583C15.5174 4.54861 15.6667 4.75 15.75 5L17.5 10V16.6667C17.5 16.9028 17.4201 17.1007 17.2604 17.2604C17.1007 17.4201 16.9028 17.5 16.6667 17.5H15.8333C15.5972 17.5 15.3993 17.4201 15.2396 17.2604C15.0799 17.1007 15 16.9028 15 16.6667V15.8333H5ZM4.83333 8.33333H15.1667L14.2917 5.83333H5.70833L4.83333 8.33333ZM6.25 13.3333C6.59722 13.3333 6.89236 13.2118 7.13542 12.9688C7.37847 12.7257 7.5 12.4306 7.5 12.0833C7.5 11.7361 7.37847 11.441 7.13542 11.1979C6.89236 10.9549 6.59722 10.8333 6.25 10.8333C5.90278 10.8333 5.60764 10.9549 5.36458 11.1979C5.12153 11.441 5 11.7361 5 12.0833C5 12.4306 5.12153 12.7257 5.36458 12.9688C5.60764 13.2118 5.90278 13.3333 6.25 13.3333ZM13.75 13.3333C14.0972 13.3333 14.3924 13.2118 14.6354 12.9688C14.8785 12.7257 15 12.4306 15 12.0833C15 11.7361 14.8785 11.441 14.6354 11.1979C14.3924 10.9549 14.0972 10.8333 13.75 10.8333C13.4028 10.8333 13.1076 10.9549 12.8646 11.1979C12.6215 11.441 12.5 11.7361 12.5 12.0833C12.5 12.4306 12.6215 12.7257 12.8646 12.9688C13.1076 13.2118 13.4028 13.3333 13.75 13.3333Z" fill="white"/>
</g>
</g>
</svg>
