<svg width="20" height="20" viewBox="0 0 20 20" fill="none" xmlns="http://www.w3.org/2000/svg">
<g id="directions_walk">
<mask id="mask0_183_3006" style="mask-type:alpha" maskUnits="userSpaceOnUse" x="0" y="0" width="20" height="20">
<rect id="Bounding box" width="20" height="20" fill="#D9D9D9"/>
</mask>
<g mask="url(#mask0_183_3006)">
<path id="directions_walk_2" d="M5.83333 19.1667L8.16667 7.41667L6.66667 8V10.8333H5V6.91667L9.20833 5.125C9.40278 5.04167 9.60764 4.99306 9.82292 4.97917C10.0382 4.96528 10.2431 4.99306 10.4375 5.0625C10.6319 5.13194 10.816 5.22917 10.9896 5.35417C11.1632 5.47917 11.3056 5.63889 11.4167 5.83333L12.25 7.16667C12.6111 7.75 13.1007 8.22917 13.7188 8.60417C14.3368 8.97917 15.0417 9.16667 15.8333 9.16667V10.8333C14.8611 10.8333 13.9931 10.6319 13.2292 10.2292C12.4653 9.82639 11.8125 9.3125 11.2708 8.6875L10.75 11.25L12.5 12.9167V19.1667H10.8333V13.75L9.08333 12.4167L7.58333 19.1667H5.83333ZM11.25 4.58333C10.7917 4.58333 10.3993 4.42014 10.0729 4.09375C9.74653 3.76736 9.58333 3.375 9.58333 2.91667C9.58333 2.45833 9.74653 2.06597 10.0729 1.73958C10.3993 1.41319 10.7917 1.25 11.25 1.25C11.7083 1.25 12.1007 1.41319 12.4271 1.73958C12.7535 2.06597 12.9167 2.45833 12.9167 2.91667C12.9167 3.375 12.7535 3.76736 12.4271 4.09375C12.1007 4.42014 11.7083 4.58333 11.25 4.58333Z" fill="white"/>
</g>
</g>
</svg>
