<svg width="20" height="20" viewBox="0 0 20 20" fill="none" xmlns="http://www.w3.org/2000/svg">
<g id="directions_bus">
<mask id="mask0_157_1791" style="mask-type:alpha" maskUnits="userSpaceOnUse" x="0" y="0" width="20" height="20">
<rect id="Bounding box" width="20" height="20" fill="#D9D9D9"/>
</mask>
<g mask="url(#mask0_157_1791)">
<path id="directions_bus_2" d="M4.99992 17.5001C4.76381 17.5001 4.56589 17.4202 4.40617 17.2605C4.24645 17.1008 4.16659 16.9029 4.16659 16.6667V14.9584C3.91659 14.6806 3.7152 14.3716 3.56242 14.0313C3.40964 13.6911 3.33325 13.3195 3.33325 12.9167V5.00008C3.33325 3.8473 3.86797 3.00355 4.93742 2.46883C6.00686 1.93411 7.69436 1.66675 9.99992 1.66675C12.3888 1.66675 14.0971 1.92369 15.1249 2.43758C16.1527 2.95147 16.6666 3.80564 16.6666 5.00008V12.9167C16.6666 13.3195 16.5902 13.6911 16.4374 14.0313C16.2846 14.3716 16.0833 14.6806 15.8333 14.9584V16.6667C15.8333 16.9029 15.7534 17.1008 15.5937 17.2605C15.4339 17.4202 15.236 17.5001 14.9999 17.5001H14.1666C13.9305 17.5001 13.7326 17.4202 13.5728 17.2605C13.4131 17.1008 13.3333 16.9029 13.3333 16.6667V15.8334H6.66659V16.6667C6.66659 16.9029 6.58672 17.1008 6.427 17.2605C6.26728 17.4202 6.06936 17.5001 5.83325 17.5001H4.99992ZM4.99992 8.33342H14.9999V5.83342H4.99992V8.33342ZM7.08325 13.3334C7.43047 13.3334 7.72561 13.2119 7.96867 12.9688C8.21172 12.7258 8.33325 12.4306 8.33325 12.0834C8.33325 11.7362 8.21172 11.4411 7.96867 11.198C7.72561 10.9549 7.43047 10.8334 7.08325 10.8334C6.73603 10.8334 6.44089 10.9549 6.19784 11.198C5.95478 11.4411 5.83325 11.7362 5.83325 12.0834C5.83325 12.4306 5.95478 12.7258 6.19784 12.9688C6.44089 13.2119 6.73603 13.3334 7.08325 13.3334ZM12.9166 13.3334C13.2638 13.3334 13.5589 13.2119 13.802 12.9688C14.0451 12.7258 14.1666 12.4306 14.1666 12.0834C14.1666 11.7362 14.0451 11.4411 13.802 11.198C13.5589 10.9549 13.2638 10.8334 12.9166 10.8334C12.5694 10.8334 12.2742 10.9549 12.0312 11.198C11.7881 11.4411 11.6666 11.7362 11.6666 12.0834C11.6666 12.4306 11.7881 12.7258 12.0312 12.9688C12.2742 13.2119 12.5694 13.3334 12.9166 13.3334Z" fill="white"/>
</g>
</g>
</svg>
